<?xml version="1.0" standalone="no"?>
<!DOCTYPE svg PUBLIC "-//W3C//DTD SVG 20010904//EN"
 "http://www.w3.org/TR/2001/REC-SVG-20010904/DTD/svg10.dtd">
<svg version="1.0" xmlns="http://www.w3.org/2000/svg"
 width="512.000000pt" height="512.000000pt" viewBox="0 0 512.000000 512.000000"
 preserveAspectRatio="xMidYMid meet">
<metadata>
Created by potrace 1.11, written by Peter Selinger 2001-2013
</metadata>
<g transform="translate(0.000000,512.000000) scale(0.100000,-0.100000)"
fill="#000000" stroke="none">
<path d="M2131 4784 c-145 -39 -291 -176 -343 -322 -25 -69 -25 -72 -27 -199
l-1 -102 -512 -3 c-497 -3 -514 -4 -558 -24 -67 -31 -142 -104 -175 -171 l-30
-58 -2 -216 c-2 -210 -2 -218 20 -249 48 -72 58 -75 268 -78 l189 -4 1 -1301
c2 -1351 1 -1326 13 -1367 48 -159 196 -307 357 -354 46 -14 193 -16 1234 -16
l1181 0 67 25 c119 43 212 120 281 233 70 115 66 34 66 1479 l0 1303 174 0
c193 0 225 7 269 60 36 42 39 67 35 290 -3 193 -3 196 -32 253 -35 68 -108
140 -174 170 -46 22 -57 22 -559 25 l-513 3 -1 102 c-2 130 -3 141 -29 206
-57 145 -182 262 -337 315 -62 22 -784 22 -862 0z m839 -323 c54 -29 67 -65
69 -191 l2 -110 -481 0 -481 0 2 110 c2 126 15 162 69 191 31 17 67 19 410 19
343 0 379 -2 410 -19z"/>
</g>
</svg>
